<svg width="235" height="53" viewBox="0 0 235 53" fill="none" xmlns="http://www.w3.org/2000/svg">
<path d="M76.032 28.64H74.496V35H70.56V18.368H76.008C78.28 18.368 79.984 18.784 81.12 19.616C82.272 20.448 82.848 21.72 82.848 23.432C82.848 24.504 82.592 25.4 82.08 26.12C81.568 26.824 80.76 27.424 79.656 27.92L83.88 35H79.44L76.032 28.64ZM74.496 25.928H76.152C77.032 25.928 77.688 25.728 78.12 25.328C78.568 24.928 78.792 24.296 78.792 23.432C78.792 22.632 78.552 22.048 78.072 21.68C77.608 21.312 76.888 21.128 75.912 21.128H74.496V25.928ZM90.4689 21.848C92.4209 21.848 93.9489 22.448 95.0529 23.648C96.1569 24.832 96.7089 26.496 96.7089 28.64C96.7089 30 96.4529 31.192 95.9409 32.216C95.4449 33.224 94.7249 34.008 93.7809 34.568C92.8529 35.128 91.7489 35.408 90.4689 35.408C88.5329 35.408 87.0049 34.816 85.8849 33.632C84.7809 32.432 84.2289 30.76 84.2289 28.616C84.2289 27.256 84.4769 26.072 84.9729 25.064C85.4849 24.04 86.2049 23.248 87.1329 22.688C88.0769 22.128 89.1889 21.848 90.4689 21.848ZM90.4689 24.632C89.7009 24.632 89.1249 24.96 88.7409 25.616C88.3569 26.256 88.1649 27.256 88.1649 28.616C88.1649 30.008 88.3489 31.024 88.7169 31.664C89.1009 32.304 89.6849 32.624 90.4689 32.624C91.2369 32.624 91.8129 32.304 92.1969 31.664C92.5809 31.008 92.7729 30 92.7729 28.64C92.7729 27.248 92.5809 26.232 92.1969 25.592C91.8289 24.952 91.2529 24.632 90.4689 24.632ZM104.485 21.848C105.365 21.848 106.157 21.976 106.861 22.232C107.565 22.488 108.229 22.88 108.853 23.408L107.221 25.664C106.421 25.056 105.613 24.752 104.797 24.752C103.949 24.752 103.309 25.064 102.877 25.688C102.445 26.312 102.229 27.32 102.229 28.712C102.229 30.056 102.445 31.008 102.877 31.568C103.309 32.128 103.933 32.408 104.749 32.408C105.181 32.408 105.573 32.344 105.925 32.216C106.277 32.072 106.701 31.848 107.197 31.544L108.853 33.896C107.589 34.904 106.157 35.408 104.557 35.408C103.261 35.408 102.141 35.136 101.197 34.592C100.253 34.032 99.5246 33.256 99.0126 32.264C98.5006 31.256 98.2446 30.08 98.2446 28.736C98.2446 27.392 98.5006 26.2 99.0126 25.16C99.5246 24.12 100.253 23.312 101.197 22.736C102.141 22.144 103.237 21.848 104.485 21.848ZM114.241 16.784V35H110.449V17.192L114.241 16.784ZM122.113 22.256L118.249 27.848L122.425 35H118.153L114.361 28.04L118.249 22.256H122.113ZM134.498 28.376C134.498 28.904 134.474 29.36 134.426 29.744H126.53C126.658 30.816 126.962 31.568 127.442 32C127.922 32.432 128.586 32.648 129.434 32.648C129.946 32.648 130.442 32.56 130.922 32.384C131.402 32.192 131.922 31.904 132.482 31.52L134.042 33.632C132.554 34.816 130.898 35.408 129.074 35.408C127.01 35.408 125.426 34.8 124.322 33.584C123.218 32.368 122.666 30.736 122.666 28.688C122.666 27.392 122.898 26.232 123.362 25.208C123.826 24.168 124.506 23.352 125.402 22.76C126.298 22.152 127.37 21.848 128.618 21.848C130.458 21.848 131.898 22.424 132.938 23.576C133.978 24.728 134.498 26.328 134.498 28.376ZM130.778 27.296C130.746 25.344 130.058 24.368 128.714 24.368C128.058 24.368 127.546 24.608 127.178 25.088C126.826 25.568 126.61 26.36 126.53 27.464H130.778V27.296ZM144.621 34.4C144.157 34.72 143.613 34.968 142.989 35.144C142.381 35.32 141.773 35.408 141.165 35.408C138.381 35.392 136.989 33.856 136.989 30.8V24.896H135.189V22.256H136.989V19.496L140.781 19.064V22.256H143.709L143.301 24.896H140.781V30.752C140.781 31.344 140.877 31.768 141.069 32.024C141.261 32.28 141.565 32.408 141.981 32.408C142.413 32.408 142.869 32.272 143.349 32L144.621 34.4ZM158.374 17.96C160.742 17.96 162.582 18.72 163.894 20.24C165.222 21.76 165.886 23.904 165.886 26.672C165.886 28.48 165.582 30.04 164.974 31.352C164.382 32.664 163.518 33.672 162.382 34.376C161.262 35.064 159.926 35.408 158.374 35.408C156.822 35.408 155.486 35.064 154.366 34.376C153.246 33.688 152.382 32.696 151.774 31.4C151.182 30.088 150.886 28.512 150.886 26.672C150.886 24.88 151.182 23.328 151.774 22.016C152.382 20.704 153.246 19.704 154.366 19.016C155.486 18.312 156.822 17.96 158.374 17.96ZM158.374 20.84C157.238 20.84 156.39 21.304 155.83 22.232C155.286 23.144 155.014 24.624 155.014 26.672C155.014 28.72 155.294 30.208 155.854 31.136C156.414 32.064 157.254 32.528 158.374 32.528C159.526 32.528 160.374 32.072 160.918 31.16C161.478 30.232 161.758 28.736 161.758 26.672C161.758 24.608 161.478 23.12 160.918 22.208C160.358 21.296 159.51 20.84 158.374 20.84ZM179.144 22.256L175.136 35H170.648L166.543 22.256H170.672L172.928 32.12L175.28 22.256H179.144ZM191.405 28.376C191.405 28.904 191.381 29.36 191.333 29.744H183.437C183.565 30.816 183.869 31.568 184.349 32C184.829 32.432 185.493 32.648 186.341 32.648C186.853 32.648 187.349 32.56 187.829 32.384C188.309 32.192 188.829 31.904 189.389 31.52L190.949 33.632C189.461 34.816 187.805 35.408 185.981 35.408C183.917 35.408 182.333 34.8 181.229 33.584C180.125 32.368 179.573 30.736 179.573 28.688C179.573 27.392 179.805 26.232 180.269 25.208C180.733 24.168 181.413 23.352 182.309 22.76C183.205 22.152 184.277 21.848 185.525 21.848C187.365 21.848 188.805 22.424 189.845 23.576C190.885 24.728 191.405 26.328 191.405 28.376ZM187.685 27.296C187.653 25.344 186.965 24.368 185.621 24.368C184.965 24.368 184.453 24.608 184.085 25.088C183.733 25.568 183.517 26.36 183.437 27.464H187.685V27.296ZM200.447 21.896C200.911 21.896 201.335 21.952 201.719 22.064L201.119 25.736C200.639 25.624 200.255 25.568 199.967 25.568C199.215 25.568 198.639 25.832 198.239 26.36C197.855 26.872 197.551 27.648 197.327 28.688V35H193.535V22.256H196.847L197.159 24.728C197.447 23.848 197.879 23.16 198.455 22.664C199.047 22.152 199.711 21.896 200.447 21.896ZM206.552 35.408C205.448 35.408 204.584 35.096 203.96 34.472C203.352 33.832 203.048 32.928 203.048 31.76V17.192L206.84 16.784V31.616C206.84 32.144 207.056 32.408 207.488 32.408C207.712 32.408 207.92 32.368 208.112 32.288L208.856 34.976C208.168 35.264 207.4 35.408 206.552 35.408ZM220.304 31.304C220.304 31.784 220.368 32.136 220.496 32.36C220.64 32.584 220.864 32.752 221.168 32.864L220.376 35.336C219.592 35.272 218.952 35.104 218.456 34.832C217.96 34.544 217.576 34.096 217.304 33.488C216.472 34.768 215.192 35.408 213.464 35.408C212.2 35.408 211.192 35.04 210.44 34.304C209.688 33.568 209.312 32.608 209.312 31.424C209.312 30.032 209.824 28.968 210.848 28.232C211.872 27.496 213.352 27.128 215.288 27.128H216.584V26.576C216.584 25.824 216.424 25.312 216.104 25.04C215.784 24.752 215.224 24.608 214.424 24.608C214.008 24.608 213.504 24.672 212.912 24.8C212.32 24.912 211.712 25.072 211.088 25.28L210.224 22.784C211.024 22.48 211.84 22.248 212.672 22.088C213.52 21.928 214.304 21.848 215.023 21.848C216.848 21.848 218.184 22.224 219.032 22.976C219.88 23.728 220.304 24.856 220.304 26.36V31.304ZM214.568 32.696C215.432 32.696 216.104 32.288 216.584 31.472V29.216H215.648C214.784 29.216 214.136 29.368 213.704 29.672C213.288 29.976 213.08 30.448 213.08 31.088C213.08 31.6 213.208 32 213.464 32.288C213.736 32.56 214.104 32.696 214.568 32.696ZM230.004 35.024C229.492 36.672 228.652 37.936 227.484 38.816C226.332 39.712 224.78 40.216 222.828 40.328L222.42 37.664C223.636 37.504 224.532 37.232 225.108 36.848C225.7 36.464 226.172 35.848 226.524 35H225.228L221.34 22.256H225.372L227.652 32.576L230.148 22.256H234.06L230.004 35.024Z" fill="#1F1F1F"/>
<g clip-path="url(#clip0_327_2)">
<path d="M51.4749 16.195L50.3242 17.5036L51.2667 17.9368L49.3236 20.1467L48.1729 21.4552L27.0003 45.5314L5.82712 21.4552L4.67638 20.1467L2.73334 17.9368L3.67583 17.5036L2.52509 16.195L0 17.356L3.09378 20.8744L4.24452 22.1829L27.0003 48.059L49.7555 22.1829L50.9062 20.8744L54 17.356L51.4749 16.195ZM27.0003 4.94104L5.24641 14.9439L6.39715 16.2525L27.0003 6.77832L47.6028 16.2525L48.7536 14.9439L27.0003 4.94104Z" fill="#B62BC3"/>
<path d="M27.0003 9.88202L8.34086 18.4615L9.4916 19.7701L27.0003 11.7193L44.5084 19.7701L45.6591 18.4615L27.0003 9.88202ZM51.4756 21.136L50.3248 22.4445L51.2667 22.8778L27.0003 50.4724L2.73334 22.8778L3.67516 22.4445L2.52442 21.136L0 22.297L27.0003 53L54 22.297L51.4756 21.136Z" fill="#8024F5"/>
<path d="M27.0003 0L0 12.415L3.09378 15.9333L4.24452 17.2418L6.18823 19.4516L7.33897 20.7602L27.0003 43.1173L46.6617 20.7602L47.8118 19.4516L49.7555 17.2418L50.9062 15.9333L54 12.415L27.0003 0ZM49.3229 15.2056L48.1722 16.5141L46.2292 18.7239L45.0784 20.0325L27.0003 40.5904L8.92157 20.0325L7.77083 18.7239L5.82779 16.5141L4.67705 15.2056L2.73334 12.9951L27.0003 1.83661L51.2667 12.9951L49.3229 15.2056Z" fill="#E83294"/>
</g>
<defs>
<clipPath id="clip0_327_2">
<rect width="54" height="53" fill="white"/>
</clipPath>
</defs>
</svg>
